<svg xmlns="http://www.w3.org/2000/svg" width="100" height="100"><g fill="#191814"><rect width="20" height="20"/><rect width="20" height="20" fill="#12130e" x="20"/><rect width="20" height="20" fill="#887f7a" x="40"/><rect width="20" height="20" fill="#c6bebb" x="60"/><rect width="20" height="20" fill="#cfcac6" x="80"/><rect width="20" height="20" fill="#14150f" y="20"/><rect width="20" height="20" fill="#12130e" x="20" y="20"/><rect width="20" height="20" fill="#8e8580" x="40" y="20"/><rect width="20" height="20" fill="#d1cac4" x="60" y="20"/><rect width="20" height="20" fill="#cec9c3" x="80" y="20"/><rect width="20" height="20" fill="#070802" y="40"/><rect width="20" height="20" fill="#0c0d08" x="20" y="40"/><rect width="20" height="20" fill="#766d68" x="40" y="40"/><rect width="20" height="20" fill="#a9a29c" x="60" y="40"/><rect width="20" height="20" fill="#6e6a5f" x="80" y="40"/><rect width="20" height="20" fill="#000200" y="60"/><rect width="20" height="20" fill="#0b0a08" x="20" y="60"/><rect width="20" height="20" fill="#6c635e" x="40" y="60"/><rect width="20" height="20" fill="#d7d6d4" x="60" y="60"/><rect width="20" height="20" fill="#e7e6e4" x="80" y="60"/><rect width="20" height="20" fill="#b9b6b1" y="80"/><rect width="20" height="20" fill="#837165" x="20" y="80"/><rect width="20" height="20" fill="#504d46" x="40" y="80"/><rect width="20" height="20" fill="#726761" x="60" y="80"/><rect width="20" height="20" fill="#5f5a56" x="80" y="80"/></g></svg>