<svg xmlns="http://www.w3.org/2000/svg" width="100" height="100"><g fill="#f7bf01"><rect width="20" height="20"/><rect width="20" height="20" fill="#cea117" x="20"/><rect width="20" height="20" fill="#ffbf06" x="40"/><rect width="20" height="20" fill="#000101" x="60"/><rect width="20" height="20" fill="#76979e" x="80"/><rect width="20" height="20" fill="#688d6b" y="20"/><rect width="20" height="20" fill="#fdc401" x="20" y="20"/><rect width="20" height="20" fill="#295e58" x="40" y="20"/><rect width="20" height="20" fill="#1d3a47" x="60" y="20"/><rect width="20" height="20" fill="#1c464d" x="80" y="20"/><rect width="20" height="20" fill="#223339" y="40"/><rect width="20" height="20" fill="#1e2b32" x="20" y="40"/><rect width="20" height="20" fill="#16252d" x="40" y="40"/><rect width="20" height="20" fill="#0d141d" x="60" y="40"/><rect width="20" height="20" fill="#15313d" x="80" y="40"/><rect width="20" height="20" fill="#16232a" y="60"/><rect width="20" height="20" fill="#0c131a" x="20" y="60"/><rect width="20" height="20" fill="#051116" x="40" y="60"/><rect width="20" height="20" fill="#020f16" x="60" y="60"/><rect width="20" height="20" fill="#21464e" x="80" y="60"/><rect width="20" height="20" fill="#1b454d" y="80"/><rect width="20" height="20" fill="#1e4954" x="20" y="80"/><rect width="20" height="20" fill="#1e545d" x="40" y="80"/><rect width="20" height="20" fill="#255c68" x="60" y="80"/><rect width="20" height="20" fill="#1a363f" x="80" y="80"/></g></svg>