<svg xmlns="http://www.w3.org/2000/svg" width="100" height="100"><g fill="#dccab4"><rect width="20" height="20"/><rect width="20" height="20" fill="#d1c1b4" x="20"/><rect width="20" height="20" fill="#a5a6a0" x="40"/><rect width="20" height="20" fill="#332727" x="60"/><rect width="20" height="20" fill="#807a6a" x="80"/><rect width="20" height="20" fill="#3b2728" y="20"/><rect width="20" height="20" fill="#594745" x="20" y="20"/><rect width="20" height="20" fill="#614031" x="40" y="20"/><rect width="20" height="20" fill="#b48164" x="60" y="20"/><rect width="20" height="20" fill="#b88e76" x="80" y="20"/><rect width="20" height="20" fill="#1c1a27" y="40"/><rect width="20" height="20" fill="#c4b5b0" x="20" y="40"/><rect width="20" height="20" fill="#d8b097" x="40" y="40"/><rect width="20" height="20" fill="#debaaa" x="60" y="40"/><rect width="20" height="20" fill="#c7a896" x="80" y="40"/><rect width="20" height="20" fill="#23181e" y="60"/><rect width="20" height="20" fill="#d3b29f" x="20" y="60"/><rect width="20" height="20" fill="#d7b6af" x="40" y="60"/><rect width="20" height="20" fill="#d6b4a8" x="60" y="60"/><rect width="20" height="20" fill="#d6b6ab" x="80" y="60"/><rect width="20" height="20" fill="#341e21" y="80"/><rect width="20" height="20" fill="#5d5048" x="20" y="80"/><rect width="20" height="20" fill="#cf9c7d" x="40" y="80"/><rect width="20" height="20" fill="#c29e90" x="60" y="80"/><rect width="20" height="20" fill="#ddc1b6" x="80" y="80"/></g></svg>