<svg xmlns="http://www.w3.org/2000/svg" width="100" height="100"><g fill="#060316"><rect width="20" height="20"/><rect width="20" height="20" fill="#6e6c82" x="20"/><rect width="20" height="20" fill="#6f8195" x="40"/><rect width="20" height="20" fill="#c1e6f6" x="60"/><rect width="20" height="20" fill="#bae0e9" x="80"/><rect width="20" height="20" fill="#6f7690" y="20"/><rect width="20" height="20" fill="#2b354e" x="20" y="20"/><rect width="20" height="20" fill="#717791" x="40" y="20"/><rect width="20" height="20" fill="#646b7e" x="60" y="20"/><rect width="20" height="20" fill="#4c4d62" x="80" y="20"/><rect width="20" height="20" fill="#6d7991" y="40"/><rect width="20" height="20" fill="#74849d" x="20" y="40"/><rect width="20" height="20" fill="#748aa1" x="40" y="40"/><rect width="20" height="20" fill="#7c92aa" x="60" y="40"/><rect width="20" height="20" fill="#798ba3" x="80" y="40"/><rect width="20" height="20" fill="#6d7c91" y="60"/><rect width="20" height="20" fill="#8aa9bb" x="20" y="60"/><rect width="20" height="20" fill="#6f7f96" x="40" y="60"/><rect width="20" height="20" fill="#aecbdb" x="60" y="60"/><rect width="20" height="20" fill="#7f95ac" x="80" y="60"/><rect width="20" height="20" fill="#717c90" y="80"/><rect width="20" height="20" fill="#718097" x="20" y="80"/><rect width="20" height="20" fill="#76869d" x="40" y="80"/><rect width="20" height="20" fill="#70859a" x="60" y="80"/><rect width="20" height="20" fill="#73859b" x="80" y="80"/></g></svg>