<svg xmlns="http://www.w3.org/2000/svg" width="100" height="100"><g fill="#2e1f18"><rect width="20" height="20"/><rect width="20" height="20" fill="#3c3a2e" x="20"/><rect width="20" height="20" fill="#2b352a" x="40"/><rect width="20" height="20" fill="#37321f" x="60"/><rect width="20" height="20" fill="#867353" x="80"/><rect width="20" height="20" fill="#361d16" y="20"/><rect width="20" height="20" fill="#3f3c35" x="20" y="20"/><rect width="20" height="20" fill="#3f3d28" x="40" y="20"/><rect width="20" height="20" fill="#3a3c2f" x="60" y="20"/><rect width="20" height="20" fill="#393a28" x="80" y="20"/><rect width="20" height="20" fill="#42271c" y="40"/><rect width="20" height="20" fill="#715e5a" x="20" y="40"/><rect width="20" height="20" fill="#e6dce4" x="40" y="40"/><rect width="20" height="20" fill="#d4cdc3" x="60" y="40"/><rect width="20" height="20" fill="#55594a" x="80" y="40"/><rect width="20" height="20" fill="#4c2b1c" y="60"/><rect width="20" height="20" fill="#74615a" x="20" y="60"/><rect width="20" height="20" fill="#f1ebeb" x="40" y="60"/><rect width="20" height="20" fill="#8d7d6e" x="60" y="60"/><rect width="20" height="20" fill="#2f3833" x="80" y="60"/><rect width="20" height="20" fill="#936d64" y="80"/><rect width="20" height="20" fill="#a07a6d" x="20" y="80"/><rect width="20" height="20" fill="#f5f0f7" x="40" y="80"/><rect width="20" height="20" fill="#5a5d66" x="60" y="80"/><rect width="20" height="20" fill="#707f82" x="80" y="80"/></g></svg>