<?xml version="1.0" encoding="UTF-8"?> <svg xmlns="http://www.w3.org/2000/svg" id="svg5" viewBox="0 0 47.23 46.65"><defs><style>.cls-1{fill:#82d3da;}</style></defs><title>drawing-2</title><path id="path77" class="cls-1" d="M29.41,8.67c0-4.12-2.07-7.46-4.62-7.46s-4.61,3.34-4.61,7.46,4.61,7.46,4.61,7.46S29.41,12.79,29.41,8.67Z" transform="translate(-1.21 -1.21)"></path><path id="path1224" class="cls-1" d="M39.42,16c2.82-3,3.59-6.88,1.71-8.57s-5.68-.61-8.51,2.42-1.71,8.57-1.71,8.57S36.6,19,39.42,16Z" transform="translate(-1.21 -1.21)"></path><path id="path1226" class="cls-1" d="M40.82,28.79c4.18,0,7.59-2,7.62-4.47s-3.34-4.58-7.52-4.62-7.61,4.46-7.61,4.46,3.34,4.58,7.51,4.63Z" transform="translate(-1.21 -1.21)"></path><path id="path1228" class="cls-1" d="M32.9,38.63c2.82,3,6.63,4.14,8.51,2.44s1.12-5.53-1.7-8.57-8.51-2.44-8.51-2.44S30.08,35.59,32.9,38.63Z" transform="translate(-1.21 -1.21)"></path><path id="path1230" class="cls-1" d="M19.89,40.59c.16,4.11,2.36,7.37,4.9,7.27s4.48-3.51,4.31-7.63S24.2,33,24.2,33,19.73,36.47,19.89,40.59Z" transform="translate(-1.21 -1.21)"></path><path id="path1232" class="cls-1" d="M10,32.13c-2.93,2.93-3.83,6.74-2,8.5s5.66.81,8.59-2.13,2-8.5,2-8.5S13,29.19,10,32.13Z" transform="translate(-1.21 -1.21)"></path><path id="path1234" class="cls-1" d="M8.59,19.56c-4.18.16-7.48,2.32-7.38,4.83S4.78,28.8,9,28.64s7.38-4.84,7.38-4.84S12.76,19.39,8.59,19.56Z" transform="translate(-1.21 -1.21)"></path><path id="path1236" class="cls-1" d="M16.53,9.85c-3-2.89-6.85-3.77-8.63-2s-.81,5.59,2.18,8.47,8.63,2,8.63,2S19.51,12.73,16.53,9.85Z" transform="translate(-1.21 -1.21)"></path><ellipse id="path1260" class="cls-1" cx="23.41" cy="22.99" rx="5.15" ry="4.8"></ellipse><path id="path5336" class="cls-1" d="M29.41,8.67c0-4.12-2.07-7.46-4.62-7.46s-4.61,3.34-4.61,7.46,4.61,7.46,4.61,7.46S29.41,12.79,29.41,8.67Z" transform="translate(-1.21 -1.21)"></path><path id="path5338" class="cls-1" d="M39.42,16c2.82-3,3.59-6.88,1.71-8.57s-5.68-.61-8.51,2.42-1.71,8.57-1.71,8.57S36.6,19,39.42,16Z" transform="translate(-1.21 -1.21)"></path><path id="path5340" class="cls-1" d="M40.82,28.79c4.18,0,7.59-2,7.62-4.47s-3.34-4.58-7.52-4.62-7.61,4.46-7.61,4.46,3.34,4.58,7.51,4.63Z" transform="translate(-1.21 -1.21)"></path><path id="path5342" class="cls-1" d="M32.9,38.63c2.82,3,6.63,4.14,8.51,2.44s1.12-5.53-1.7-8.57-8.51-2.44-8.51-2.44S30.08,35.59,32.9,38.63Z" transform="translate(-1.21 -1.21)"></path><path id="path5344" class="cls-1" d="M19.89,40.59c.16,4.11,2.36,7.37,4.9,7.27s4.48-3.51,4.31-7.63S24.2,33,24.2,33,19.73,36.47,19.89,40.59Z" transform="translate(-1.21 -1.21)"></path><path id="path5346" class="cls-1" d="M10,32.13c-2.93,2.93-3.83,6.74-2,8.5s5.66.81,8.59-2.13,2-8.5,2-8.5S13,29.19,10,32.13Z" transform="translate(-1.21 -1.21)"></path><path id="path5348" class="cls-1" d="M8.59,19.56c-4.18.16-7.48,2.32-7.38,4.83S4.78,28.8,9,28.64s7.38-4.84,7.38-4.84S12.76,19.39,8.59,19.56Z" transform="translate(-1.21 -1.21)"></path><path id="path5350" class="cls-1" d="M16.53,9.85c-3-2.89-6.85-3.77-8.63-2s-.81,5.59,2.18,8.47,8.63,2,8.63,2S19.51,12.73,16.53,9.85Z" transform="translate(-1.21 -1.21)"></path><ellipse id="ellipse5352" class="cls-1" cx="23.41" cy="22.99" rx="5.15" ry="4.8"></ellipse></svg> 