<svg xmlns="http://www.w3.org/2000/svg" width="100" height="100"><g fill="#696e72"><rect width="20" height="20"/><rect width="20" height="20" fill="#7d868d" x="20"/><rect width="20" height="20" fill="#808487" x="40"/><rect width="20" height="20" fill="#aeaeae" x="60"/><rect width="20" height="20" fill="#261a1a" x="80"/><rect width="20" height="20" fill="#6c7175" y="20"/><rect width="20" height="20" fill="#9da0a5" x="20" y="20"/><rect width="20" height="20" fill="#e5e1de" x="40" y="20"/><rect width="20" height="20" fill="#b8c5ce" x="60" y="20"/><rect width="20" height="20" fill="#6e6462" x="80" y="20"/><rect width="20" height="20" fill="#a4a09d" y="40"/><rect width="20" height="20" fill="#aa9f99" x="20" y="40"/><rect width="20" height="20" fill="#aa8e76" x="40" y="40"/><rect width="20" height="20" fill="#654b3c" x="60" y="40"/><rect width="20" height="20" fill="#433834" x="80" y="40"/><rect width="20" height="20" fill="#70543e" y="60"/><rect width="20" height="20" fill="#624732" x="20" y="60"/><rect width="20" height="20" fill="#6c503b" x="40" y="60"/><rect width="20" height="20" fill="#584131" x="60" y="60"/><rect width="20" height="20" fill="#222021" x="80" y="60"/><rect width="20" height="20" fill="#4e382b" y="80"/><rect width="20" height="20" fill="#4b352a" x="20" y="80"/><rect width="20" height="20" fill="#534137" x="40" y="80"/><rect width="20" height="20" fill="#614736" x="60" y="80"/><rect width="20" height="20" fill="#27221e" x="80" y="80"/></g></svg>