<svg xmlns="http://www.w3.org/2000/svg" width="100" height="100"><g fill="#d9dce1"><rect width="20" height="20"/><rect width="20" height="20" fill="#eeeeee" x="20"/><rect width="20" height="20" fill="#eeeeee" x="40"/><rect width="20" height="20" fill="#f7f7f7" x="60"/><rect width="20" height="20" fill="#eeeeee" x="80"/><rect width="20" height="20" fill="#d6d9de" y="20"/><rect width="20" height="20" fill="#eeeeee" x="20" y="20"/><rect width="20" height="20" fill="#edeef2" x="40" y="20"/><rect width="20" height="20" fill="#edeee9" x="60" y="20"/><rect width="20" height="20" fill="#efedee" x="80" y="20"/><rect width="20" height="20" fill="#cfd2d7" y="40"/><rect width="20" height="20" fill="#eeedf2" x="20" y="40"/><rect width="20" height="20" fill="#cfcbc2" x="40" y="40"/><rect width="20" height="20" fill="#cdcac3" x="60" y="40"/><rect width="20" height="20" fill="#ebecf0" x="80" y="40"/><rect width="20" height="20" fill="#c6aa94" y="60"/><rect width="20" height="20" fill="#7f5935" x="20" y="60"/><rect width="20" height="20" fill="#352d2a" x="40" y="60"/><rect width="20" height="20" fill="#4e2509" x="60" y="60"/><rect width="20" height="20" fill="#673e2c" x="80" y="60"/><rect width="20" height="20" fill="#c28f60" y="80"/><rect width="20" height="20" fill="#60412d" x="20" y="80"/><rect width="20" height="20" fill="#ae765b" x="40" y="80"/><rect width="20" height="20" fill="#a37156" x="60" y="80"/><rect width="20" height="20" fill="#874d41" x="80" y="80"/></g></svg>