<svg xmlns="http://www.w3.org/2000/svg" width="100" height="100"><g fill="#f4f3ef"><rect width="20" height="20"/><rect width="20" height="20" fill="#f6f2e9" x="20"/><rect width="20" height="20" fill="#e0d1be" x="40"/><rect width="20" height="20" fill="#120807" x="60"/><rect width="20" height="20" fill="#0d0200" x="80"/><rect width="20" height="20" fill="#f1f0ec" y="20"/><rect width="20" height="20" fill="#eadbc6" x="20" y="20"/><rect width="20" height="20" fill="#d8bb93" x="40" y="20"/><rect width="20" height="20" fill="#6c4f47" x="60" y="20"/><rect width="20" height="20" fill="#795c54" x="80" y="20"/><rect width="20" height="20" fill="#f4eee2" y="40"/><rect width="20" height="20" fill="#dec2aa" x="20" y="40"/><rect width="20" height="20" fill="#957a65" x="40" y="40"/><rect width="20" height="20" fill="#63463e" x="60" y="40"/><rect width="20" height="20" fill="#412e1f" x="80" y="40"/><rect width="20" height="20" fill="#c0a087" y="60"/><rect width="20" height="20" fill="#f0d8c0" x="20" y="60"/><rect width="20" height="20" fill="#8b6552" x="40" y="60"/><rect width="20" height="20" fill="#593c34" x="60" y="60"/><rect width="20" height="20" fill="#ffe8ce" x="80" y="60"/><rect width="20" height="20" fill="#fbf3f0" y="80"/><rect width="20" height="20" fill="#f8f9fe" x="20" y="80"/><rect width="20" height="20" fill="#654631" x="40" y="80"/><rect width="20" height="20" fill="#3f271d" x="60" y="80"/><rect width="20" height="20" fill="#724d3d" x="80" y="80"/></g></svg>