<svg xmlns="http://www.w3.org/2000/svg" width="100" height="100"><g fill="#e1dbdb"><rect width="20" height="20"/><rect width="20" height="20" fill="#564531" x="20"/><rect width="20" height="20" fill="#3d2a19" x="40"/><rect width="20" height="20" fill="#894c1d" x="60"/><rect width="20" height="20" fill="#e1ae83" x="80"/><rect width="20" height="20" fill="#d1b6a3" y="20"/><rect width="20" height="20" fill="#311e17" x="20" y="20"/><rect width="20" height="20" fill="#9d5831" x="40" y="20"/><rect width="20" height="20" fill="#b1703a" x="60" y="20"/><rect width="20" height="20" fill="#e09254" x="80" y="20"/><rect width="20" height="20" fill="#c37d4a" y="40"/><rect width="20" height="20" fill="#a45c36" x="20" y="40"/><rect width="20" height="20" fill="#9d5e35" x="40" y="40"/><rect width="20" height="20" fill="#945c39" x="60" y="40"/><rect width="20" height="20" fill="#d98a52" x="80" y="40"/><rect width="20" height="20" fill="#07080a" y="60"/><rect width="20" height="20" fill="#47261d" x="20" y="60"/><rect width="20" height="20" fill="#180f06" x="40" y="60"/><rect width="20" height="20" fill="#241007" x="60" y="60"/><rect width="20" height="20" fill="#864a28" x="80" y="60"/><rect width="20" height="20" fill="#09121b" y="80"/><rect width="20" height="20" fill="#0b0c11" x="20" y="80"/><rect width="20" height="20" fill="#684132" x="40" y="80"/><rect width="20" height="20" fill="#875a3b" x="60" y="80"/><rect width="20" height="20" fill="#161117" x="80" y="80"/></g></svg>