<svg xmlns="http://www.w3.org/2000/svg" width="100" height="100"><g fill="#3b1f14"><rect width="20" height="20"/><rect width="20" height="20" fill="#1c1316" x="20"/><rect width="20" height="20" fill="#0e0f13" x="40"/><rect width="20" height="20" fill="#141215" x="60"/><rect width="20" height="20" fill="#7e5e47" x="80"/><rect width="20" height="20" fill="#f3d8c5" y="20"/><rect width="20" height="20" fill="#241a19" x="20" y="20"/><rect width="20" height="20" fill="#141319" x="40" y="20"/><rect width="20" height="20" fill="#271511" x="60" y="20"/><rect width="20" height="20" fill="#ecd2c1" x="80" y="20"/><rect width="20" height="20" fill="#351611" y="40"/><rect width="20" height="20" fill="#3b2a23" x="20" y="40"/><rect width="20" height="20" fill="#1b1b19" x="40" y="40"/><rect width="20" height="20" fill="#1a1915" x="60" y="40"/><rect width="20" height="20" fill="#1c1412" x="80" y="40"/><rect width="20" height="20" fill="#331c16" y="60"/><rect width="20" height="20" fill="#65391c" x="20" y="60"/><rect width="20" height="20" fill="#9d7659" x="40" y="60"/><rect width="20" height="20" fill="#bb8c62" x="60" y="60"/><rect width="20" height="20" fill="#705236" x="80" y="60"/><rect width="20" height="20" fill="#291b18" y="80"/><rect width="20" height="20" fill="#75492c" x="20" y="80"/><rect width="20" height="20" fill="#da9463" x="40" y="80"/><rect width="20" height="20" fill="#ad5f2f" x="60" y="80"/><rect width="20" height="20" fill="#815332" x="80" y="80"/></g></svg>