<svg xmlns="http://www.w3.org/2000/svg" width="100" height="100"><g fill="#312c26"><rect width="20" height="20"/><rect width="20" height="20" fill="#4b403a" x="20"/><rect width="20" height="20" fill="#3a312a" x="40"/><rect width="20" height="20" fill="#342c21" x="60"/><rect width="20" height="20" fill="#5d4837" x="80"/><rect width="20" height="20" fill="#26211d" y="20"/><rect width="20" height="20" fill="#65544c" x="20" y="20"/><rect width="20" height="20" fill="#4d3932" x="40" y="20"/><rect width="20" height="20" fill="#6a4e40" x="60" y="20"/><rect width="20" height="20" fill="#333530" x="80" y="20"/><rect width="20" height="20" fill="#453b31" y="40"/><rect width="20" height="20" fill="#6d4b42" x="20" y="40"/><rect width="20" height="20" fill="#422c1e" x="40" y="40"/><rect width="20" height="20" fill="#b59681" x="60" y="40"/><rect width="20" height="20" fill="#dec8bb" x="80" y="40"/><rect width="20" height="20" fill="#32281f" y="60"/><rect width="20" height="20" fill="#46342a" x="20" y="60"/><rect width="20" height="20" fill="#3f2e24" x="40" y="60"/><rect width="20" height="20" fill="#865b48" x="60" y="60"/><rect width="20" height="20" fill="#d7b6a3" x="80" y="60"/><rect width="20" height="20" fill="#372f2c" y="80"/><rect width="20" height="20" fill="#302923" x="20" y="80"/><rect width="20" height="20" fill="#3e2f28" x="40" y="80"/><rect width="20" height="20" fill="#956f5a" x="60" y="80"/><rect width="20" height="20" fill="#c8a591" x="80" y="80"/></g></svg>