<svg xmlns="http://www.w3.org/2000/svg" width="100" height="100"><g fill="#956551"><rect width="20" height="20"/><rect width="20" height="20" fill="#b3958d" x="20"/><rect width="20" height="20" fill="#bba6a3" x="40"/><rect width="20" height="20" fill="#866158" x="60"/><rect width="20" height="20" fill="#533431" x="80"/><rect width="20" height="20" fill="#9f725d" y="20"/><rect width="20" height="20" fill="#b49084" x="20" y="20"/><rect width="20" height="20" fill="#58352f" x="40" y="20"/><rect width="20" height="20" fill="#754f4c" x="60" y="20"/><rect width="20" height="20" fill="#5f3d3b" x="80" y="20"/><rect width="20" height="20" fill="#613b30" y="40"/><rect width="20" height="20" fill="#b68b7b" x="20" y="40"/><rect width="20" height="20" fill="#81524a" x="40" y="40"/><rect width="20" height="20" fill="#70707a" x="60" y="40"/><rect width="20" height="20" fill="#574e51" x="80" y="40"/><rect width="20" height="20" fill="#aea3a9" y="60"/><rect width="20" height="20" fill="#a37e6c" x="20" y="60"/><rect width="20" height="20" fill="#895b4e" x="40" y="60"/><rect width="20" height="20" fill="#bb9483" x="60" y="60"/><rect width="20" height="20" fill="#b08c7c" x="80" y="60"/><rect width="20" height="20" fill="#a57863" y="80"/><rect width="20" height="20" fill="#966658" x="20" y="80"/><rect width="20" height="20" fill="#8d5a49" x="40" y="80"/><rect width="20" height="20" fill="#b69284" x="60" y="80"/><rect width="20" height="20" fill="#bca49a" x="80" y="80"/></g></svg>