<svg xmlns="http://www.w3.org/2000/svg" width="100" height="100"><g fill="#9f7162"><rect width="20" height="20"/><rect width="20" height="20" fill="#cfafb0" x="20"/><rect width="20" height="20" fill="#d1b9b7" x="40"/><rect width="20" height="20" fill="#dbc5c7" x="60"/><rect width="20" height="20" fill="#aa8d8f" x="80"/><rect width="20" height="20" fill="#aa7e71" y="20"/><rect width="20" height="20" fill="#d1b7b6" x="20" y="20"/><rect width="20" height="20" fill="#c9afb2" x="40" y="20"/><rect width="20" height="20" fill="#83574a" x="60" y="20"/><rect width="20" height="20" fill="#8a5452" x="80" y="20"/><rect width="20" height="20" fill="#a9887f" y="40"/><rect width="20" height="20" fill="#5f3527" x="20" y="40"/><rect width="20" height="20" fill="#ba8e83" x="40" y="40"/><rect width="20" height="20" fill="#bc9085" x="60" y="40"/><rect width="20" height="20" fill="#4b2017" x="80" y="40"/><rect width="20" height="20" fill="#ad9f9e" y="60"/><rect width="20" height="20" fill="#825252" x="20" y="60"/><rect width="20" height="20" fill="#67382e" x="40" y="60"/><rect width="20" height="20" fill="#dec9d0" x="60" y="60"/><rect width="20" height="20" fill="#d5b9b8" x="80" y="60"/><rect width="20" height="20" fill="#846960" y="80"/><rect width="20" height="20" fill="#241510" x="20" y="80"/><rect width="20" height="20" fill="#b28c83" x="40" y="80"/><rect width="20" height="20" fill="#9c6257" x="60" y="80"/><rect width="20" height="20" fill="#702d1a" x="80" y="80"/></g></svg>