<svg xmlns="http://www.w3.org/2000/svg" width="100" height="100"><g fill="#f2d2bd"><rect width="20" height="20"/><rect width="20" height="20" fill="#d0ab9b" x="20"/><rect width="20" height="20" fill="#fbc5ad" x="40"/><rect width="20" height="20" fill="#e9cfbe" x="60"/><rect width="20" height="20" fill="#4b4140" x="80"/><rect width="20" height="20" fill="#4c4c4e" y="20"/><rect width="20" height="20" fill="#525250" x="20" y="20"/><rect width="20" height="20" fill="#e1ded5" x="40" y="20"/><rect width="20" height="20" fill="#926c57" x="60" y="20"/><rect width="20" height="20" fill="#8d6f64" x="80" y="20"/><rect width="20" height="20" fill="#1b191a" y="40"/><rect width="20" height="20" fill="#e2d6ca" x="20" y="40"/><rect width="20" height="20" fill="#dee0db" x="40" y="40"/><rect width="20" height="20" fill="#382016" x="60" y="40"/><rect width="20" height="20" fill="#a46a52" x="80" y="40"/><rect width="20" height="20" fill="#1b1108" y="60"/><rect width="20" height="20" fill="#e1cfbb" x="20" y="60"/><rect width="20" height="20" fill="#55524d" x="40" y="60"/><rect width="20" height="20" fill="#150600" x="60" y="60"/><rect width="20" height="20" fill="#553e30" x="80" y="60"/><rect width="20" height="20" fill="#816f5b" y="80"/><rect width="20" height="20" fill="#d8c6b0" x="20" y="80"/><rect width="20" height="20" fill="#81848b" x="40" y="80"/><rect width="20" height="20" fill="#201816" x="60" y="80"/><rect width="20" height="20" fill="#381f18" x="80" y="80"/></g></svg>