<svg xmlns="http://www.w3.org/2000/svg" width="100" height="100"><g fill="#ffffff"><rect width="20" height="20"/><rect width="20" height="20" x="20"/><rect width="20" height="20" x="40"/><rect width="20" height="20" x="60"/><rect width="20" height="20" fill="#fcfdfe" x="80"/><rect width="20" height="20" y="20"/><rect width="20" height="20" x="20" y="20"/><rect width="20" height="20" fill="#acc5e7" x="40" y="20"/><rect width="20" height="20" fill="#acccf5" x="60" y="20"/><rect width="20" height="20" fill="#9cbeec" x="80" y="20"/><rect width="20" height="20" y="40"/><rect width="20" height="20" x="20" y="40"/><rect width="20" height="20" fill="#b6d1f4" x="40" y="40"/><rect width="20" height="20" fill="#b0cef4" x="60" y="40"/><rect width="20" height="20" fill="#acccf3" x="80" y="40"/><rect width="20" height="20" y="60"/><rect width="20" height="20" x="20" y="60"/><rect width="20" height="20" fill="#afcef4" x="40" y="60"/><rect width="20" height="20" fill="#adccf1" x="60" y="60"/><rect width="20" height="20" fill="#9bbde8" x="80" y="60"/><rect width="20" height="20" y="80"/><rect width="20" height="20" fill="#b2c7e8" x="20" y="80"/><rect width="20" height="20" fill="#b6d3f6" x="40" y="80"/><rect width="20" height="20" fill="#97bbe9" x="60" y="80"/><rect width="20" height="20" fill="#9ebfe9" x="80" y="80"/></g></svg>