<svg xmlns="http://www.w3.org/2000/svg" width="100" height="100"><g fill="#000000"><rect width="20" height="20"/><rect width="20" height="20" x="20"/><rect width="20" height="20" x="40"/><rect width="20" height="20" x="60"/><rect width="20" height="20" fill="#1e1a1a" x="80"/><rect width="20" height="20" y="20"/><rect width="20" height="20" x="20" y="20"/><rect width="20" height="20" x="40" y="20"/><rect width="20" height="20" x="60" y="20"/><rect width="20" height="20" fill="#262223" x="80" y="20"/><rect width="20" height="20" y="40"/><rect width="20" height="20" x="20" y="40"/><rect width="20" height="20" fill="#1f283d" x="40" y="40"/><rect width="20" height="20" fill="#292322" x="60" y="40"/><rect width="20" height="20" fill="#272323" x="80" y="40"/><rect width="20" height="20" y="60"/><rect width="20" height="20" fill="#211c1c" x="20" y="60"/><rect width="20" height="20" fill="#242021" x="40" y="60"/><rect width="20" height="20" fill="#231f1e" x="60" y="60"/><rect width="20" height="20" fill="#262223" x="80" y="60"/><rect width="20" height="20" y="80"/><rect width="20" height="20" fill="#272223" x="20" y="80"/><rect width="20" height="20" fill="#231f20" x="40" y="80"/><rect width="20" height="20" fill="#24201f" x="60" y="80"/><rect width="20" height="20" fill="#201c1b" x="80" y="80"/></g></svg>