<svg xmlns="http://www.w3.org/2000/svg" width="100" height="100"><g fill="#000000"><rect width="20" height="20"/><rect width="20" height="20" x="20"/><rect width="20" height="20" x="40"/><rect width="20" height="20" x="60"/><rect width="20" height="20" fill="#2b4245" x="80"/><rect width="20" height="20" y="20"/><rect width="20" height="20" x="20" y="20"/><rect width="20" height="20" fill="#98b5bd" x="40" y="20"/><rect width="20" height="20" fill="#95b3bc" x="60" y="20"/><rect width="20" height="20" fill="#99bbc9" x="80" y="20"/><rect width="20" height="20" y="40"/><rect width="20" height="20" fill="#9bb8c4" x="20" y="40"/><rect width="20" height="20" fill="#a4c3ce" x="40" y="40"/><rect width="20" height="20" fill="#92b8c9" x="60" y="40"/><rect width="20" height="20" fill="#99bbc9" x="80" y="40"/><rect width="20" height="20" y="60"/><rect width="20" height="20" fill="#9ebec9" x="20" y="60"/><rect width="20" height="20" fill="#294d67" x="40" y="60"/><rect width="20" height="20" fill="#85aec1" x="60" y="60"/><rect width="20" height="20" fill="#9abdcc" x="80" y="60"/><rect width="20" height="20" y="80"/><rect width="20" height="20" x="20" y="80"/><rect width="20" height="20" fill="#97bccc" x="40" y="80"/><rect width="20" height="20" fill="#83acc0" x="60" y="80"/><rect width="20" height="20" fill="#8eb5c6" x="80" y="80"/></g></svg>