<svg xmlns="http://www.w3.org/2000/svg" width="100" height="100"><g fill="#000000"><rect width="20" height="20"/><rect width="20" height="20" fill="#1e1818" x="20"/><rect width="20" height="20" fill="#171215" x="40"/><rect width="20" height="20" fill="#151213" x="60"/><rect width="20" height="20" fill="#151112" x="80"/><rect width="20" height="20" y="20"/><rect width="20" height="20" fill="#1b191c" x="20" y="20"/><rect width="20" height="20" fill="#111013" x="40" y="20"/><rect width="20" height="20" fill="#151217" x="60" y="20"/><rect width="20" height="20" fill="#1a191d" x="80" y="20"/><rect width="20" height="20" y="40"/><rect width="20" height="20" fill="#151216" x="20" y="40"/><rect width="20" height="20" fill="#141416" x="40" y="40"/><rect width="20" height="20" fill="#131115" x="60" y="40"/><rect width="20" height="20" fill="#110e13" x="80" y="40"/><rect width="20" height="20" y="60"/><rect width="20" height="20" fill="#242328" x="20" y="60"/><rect width="20" height="20" fill="#0b0808" x="40" y="60"/><rect width="20" height="20" fill="#171316" x="60" y="60"/><rect width="20" height="20" fill="#181619" x="80" y="60"/><rect width="20" height="20" y="80"/><rect width="20" height="20" fill="#232026" x="20" y="80"/><rect width="20" height="20" fill="#0d090a" x="40" y="80"/><rect width="20" height="20" fill="#100c0d" x="60" y="80"/><rect width="20" height="20" fill="#171315" x="80" y="80"/></g></svg>